# xmcd
#
# Track frame offsets:
#	150
#	26023
#	44288
#	69263
#	85845
#	114471
#	135170
#	161643
#	186242
#	208198
#	234523
#	255520
#	281396
#	299721
#	316071
#
# Disc length: 4488 seconds
#
# Revision: 0
# Processed by: cddbd v1.5.2PL0 Copyright (c) Steve Scherf et al.
# Submitted via: EasyCDDAExtractor 2010.6.0.0
#
DISCID=d011860f
DTITLE=Marcos Silva - Pra Voce Vencer
DYEAR=2007
DGENRE=Gospel
TTITLE0=Pra Voce Vencer
TTITLE1=Azeite Quente
TTITLE2=Um Amigo
TTITLE3=Se Liga No Misterio
TTITLE4=So Deus Sabe
TTITLE5=Receba Renovo
TTITLE6=Promessas
TTITLE7=Deus Entre Na Guerra
TTITLE8=Louve Exalte A Deus
TTITLE9=Voce Nao Esta Sozinho
TTITLE10=De Uma Chance Pra Jesus
TTITLE11=Pra Voce Vencer (Pb)
TTITLE12=Azeite Quente (Pp)
TTITLE13=Um Amigo (Pb)
TTITLE14=Se Liga No Misterio (Pb)
EXTD=
EXTT0=
EXTT1=
EXTT2=
EXTT3=
EXTT4=
EXTT5=
EXTT6=
EXTT7=
EXTT8=
EXTT9=
EXTT10=
EXTT11=
EXTT12=
EXTT13=
EXTT14=
PLAYORDER=
